/* XPM */
static char *__builtin_w3c_icon_audio[] = {
/* width height ncolors chars_per_pixel */
"20 22 8 1",
/* colors */
"  c #000000",
". c #999999",
"X c #660000",
"o c #333333",
"O c #CCCCCC",
"+ c none",
"@ c #FFFFFF",
"# c #FF3333",
/* pixels */
"++++++++++++++++++++",
"++++++++++++++++++++",
"++++++++++o++++##+++",
"+++++++++  +##++##++",
"++++++++ . ++##++##+",
"+++++++ .@ +++##+##+",
"++++++ .@@ +#++#++##",
"+     .@@@ +##+##+X#",
" .....@@@@ +##+X#+X#",
" .@@@@@@@@ +X#+X#+X#",
" .@@@@@@@@ +X#+X#+X#",
" .@@@@@@@@ +X#+X#+X#",
" .@@@@@@@@ +X#+X#+X#",
" .o.o.o@@@ +##+X#+X#",
"+     Oo@@ +##+##+X#",
"++oooo Oo@ +#++#++##",
"++++++o Oo +++##+##+",
"+++++++o O ++##++#++",
"++++++++o  +##++##++",
"+++++++++oo++++##+++",
"++++++++++++++++++++",
"++++++++++++++++++++"
};
