/* XPM */
static char * boomerang_xpm[] = {
/* width height ncolors chars_per_pixel */
"32 32 16 1",
/* colors */
" 	s None	c None",
".	c #FFCC9A",
"X	c #DDDDDD",
"o	c #6699FF",
"O	c #FF9966",
"+	c white",
"@	c #0000EF",
"#	c #9A6633",
"$	c #CB6532",
"%	c #FF6666",
"&	c #FE0000",
"*	c #890000",
"=	c #BBBBBB",
"-	c #663300",
";	c #666666",
":	c #000066",
/* pixels */
"               .......XXo       ",
"           ....OOOOOOO++@oXX    ",
"        ...OOO###$$##$++@@++%%% ",
"      ..OO##$##$$#$#$$XX@@++&&&*",
"     .O####$#$###$#$#$==@@==&&**",
"    .O#$####$###------;;::;;*** ",
"   .O#$#######---:::-#          ",
"   .O$######---:#               ",
"  .O#######--:#                 ",
"  .O######--:                   ",
"  .######--:                    ",
" .O#####--:                     ",
" .O####--:                      ",
" .O####-:                       ",
" .####--#                       ",
".O#$##-:                        ",
".O#$##-#                        ",
".O$##-:                         ",
".O$##-:                         ",
".O###-:                         ",
".O$##--                         ",
".O$$$$#                         ",
"X++X=;                          ",
"X++X=;                          ",
"o@@@@:                          ",
" o@@@:                          ",
" X++=;                          ",
" X++=;                          ",
"  %&&*                          ",
"  %&&*                          ",
"  %&**                          ",
"   **                           "};
