/* XPM */
static char *__builtin_w3c_icon_calculator[] = {
/* width height ncolors chars_per_pixel */
"15 21 2 1",
/* colors */
"  c #000000",
". c none",
/* pixels */
"               ",
" ............. ",
" .           . ",
" . ......... . ",
" . ......... . ",
" .           . ",
" ............. ",
" ............. ",
" .   .   .   . ",
" . . . . . . . ",
" .   .   .   . ",
" ............. ",
" .   .   .   . ",
" . . . . . . . ",
" .   .   .   . ",
" ............. ",
" .   .   .   . ",
" . . . . . . . ",
" .   .   .   . ",
" ............. ",
"               "
};
