/* XPM */
static char *__builtin_w3c_icon_cd_i[] = {
/* width height ncolors chars_per_pixel */
"20 21 2 1",
/* colors */
"  c #000000",
". c none",
/* pixels */
".......     ........",
".....  .....  ......",
"...  .........  ....",
".. ............. ...",
".. .......          ",
". ..  .  .          ",
". ........ ........ ",
" .......   ........ ",
" ...... ..          ",
" . . .. .. .. .. .. ",
" ...... .. .. .. .. ",
" .......            ",
". ........ .. .. .. ",
". ........ .. .. .. ",
".. .  . ..          ",
".. ....... .. .. .. ",
"...  ..... .. .. .. ",
".....  ...          ",
".......    .. .. .. ",
".......... .. .. .. ",
"..........          "
};
