/* XPM */
static char *__builtin_w3c_icon_clock[] = {
/* width height ncolors chars_per_pixel */
"19 19 2 1",
/* colors */
"  c #000000",
". c none",
/* pixels */
"......       ......",
"....  .......  ....",
"... ..... ..... ...",
".. ...... ...... ..",
". ....... ....... .",
". ....... ....... .",
" ........ ........ ",
" ........ ........ ",
" ........ ........ ",
" ....      ....... ",
" ........ ........ ",
" ................. ",
" ................. ",
". ............... .",
". ............... .",
".. ............. ..",
"... ........... ...",
"....  .......  ....",
"......       ......"
};
