/* XPM */
static char *__builtin_w3c_icon_diskette[] = {
/* width height ncolors chars_per_pixel */
"18 18 2 1",
/* colors */
"  c #000000",
". c none",
/* pixels */
"                ..",
" ... ........ .. .",
" ... ........ ... ",
" ... ........ ... ",
" ... ........ ... ",
" ...          ... ",
" ................ ",
" .......  ....... ",
" ...... .. ...... ",
" ...... .. ...... ",
" .......  ....... ",
" ................ ",
" ................ ",
" ................ ",
" ................ ",
" ................ ",
" ................ ",
"                  "
};
