/* XPM */
static char *__builtin_w3c_icon_disk_drive[] = {
/* width height ncolors chars_per_pixel */
"20 11 2 1",
/* colors */
"  c #000000",
". c none",
/* pixels */
"                    ",
" .................. ",
" .  ............... ",
" .  ............... ",
" ......      ...... ",
" .                . ",
" ......      ...... ",
" .................. ",
" .................. ",
" .................. ",
"                    "
};
