/* XPM */
static char *__builtin_w3c_icon_filing_cabinet[] = {
/* width height ncolors chars_per_pixel */
"17 22 2 1",
/* colors */
"  c #000000",
". c none",
/* pixels */
"..               ",
"                 ",
" ..............  ",
" .            .  ",
" . .......... .  ",
" . .......... .  ",
" . ... .. ... .  ",
" . ...    ... .  ",
" . .......... .  ",
" . .......... .  ",
" .            .  ",
" ..............  ",
" .            .  ",
" . .......... .  ",
" . .......... .  ",
" . ... .. ... .  ",
" . ...    ... .  ",
" . .......... .  ",
" . .......... .  ",
" .            .  ",
" ..............  ",
"                ."
};
