/* XPM */
static char *__builtin_w3c_icon_folder_open[] = {
/* width height ncolors chars_per_pixel */
"27 22 8 1",
/* colors */
"  c #000000",
". c #996633",
"X c #BFB6B6",
"o c #333333",
"O c #CCCCCC",
"+ c none",
"@ c #FFCC99",
"# c #66CCFF",
/* pixels */
"+++++++++++++++++++++++++++",
"+++++++++++++++++++++++++++",
"+++++++++++++++++++++++++++",
"+++++++++++++++++++++++++++",
"++        +++++++++++++++++",
"+ XXXXXXXX ++++++++++++++++",
" XXXXXXXXXX      ++++++++++",
" XOXXOXOXXXXXXXXX +++++++++",
" XXXXXXXXXXOXXXXXX ++++++++",
" XXOXXXXOX XXOXXOXX       +",
" XXXXXXXX @ XXXXXX @@@@@@. ",
" XXX#XOX @@@      @@@@@@.o ",
" XOXXXX @@@@@@@@@@@@@@@.o +",
" XXXXX @@@@@@@@@@@@@@@.o ++",
" XXXO @@@@@@@@@@@@@@@.o +++",
" XOX @@@@@@@@@@@@@@@.o ++++",
" XX @@@@@@@@@@@@@@@.o +++++",
" X @@@@@@@@@@@@@@@.o ++++++",
"  @@@@@@@@@@@@@@@.o +++++++",
"+ ..............oo ++++++++",
"++ ooooooooooooo  +++++++++",
"+++              ++++++++++"
};
