/* XPM */
static char *__builtin_w3c_icon_glossary[] = {
/* width height ncolors chars_per_pixel */
"15 17 2 1",
/* colors */
"  c #000000",
". c none",
/* pixels */
"   ..          ",
"...............",
".....        ..",
"...............",
".....         .",
"...............",
"...............",
"  ...         .",
"...............",
".....      ....",
"...............",
"...............",
"   ..          ",
"...............",
".....         .",
"...............",
".....       ..."
};
