/* XPM */
static char *__builtin_w3c_icon_image[] = {
/* width height ncolors chars_per_pixel */
"20 22 15 1",
/* colors */
"  c #000000",
". c #003366",
"X c #999999",
"o c #FFCC33",
"O c #660000",
"+ c #756646",
"@ c #BFB6B6",
"# c #333333",
"$ c #CCCCCC",
"% c none",
"& c #FFCC99",
"* c #FFFFFF",
"= c #FF3333",
"- c #008D7D",
"; c #66CCFF",
/* pixels */
"#############%%%%%%%",
"#**********#*#%%%%%%",
"#**********#**#%%%%%",
"#**********#***#%%%%",
"#*=======$*#****#%%%",
"#*=======O* # # # %%",
"#*=======O*       %%",
"#*=======O***XXXX %%",
"#*=====----@**XXX %%",
"#*====-**o--$***X %%",
"#*$==-&$----#**$X %%",
"#*$OO-&-----#*$.X %%",
"#****-------#$-.X %%",
"#****#-----+#;-.X %%",
"#****$#---+#--;.X %%",
"#*****&####;-;-.X %%",
"#*****%**$--;-;.X %%",
"#*******@;-;-;-.X %%",
"#******$........X %%",
"#***************X %%",
"##XXXXXXXXXXXXXX# %%",
"%%                %%"
};
