/* XPM */
static char *__builtin_w3c_icon_mail_in[] = {
/* width height ncolors chars_per_pixel */
"20 23 2 1",
/* colors */
"  c #000000",
". c none",
/* pixels */
".                  .",
".  ..............  .",
". . ............ . .",
". .. .......... .. .",
". ...  ......  ... .",
". ..... .... ..... .",
". ...... .. ...... .",
". .......  ....... .",
". ................ .",
". ................ .",
". ................ .",
". ........   ..... .",
".                  .",
"..........   .......",
"..........   .......",
"........       .....",
".........     ......",
"..........   .......",
"........... ........",
"    ............    ",
" ..              .. ",
" .................. ",
"                    "
};
