/* XPM */
static char * noboomerang_xpm[] = {
/* width height ncolors chars_per_pixel */
"32 32 15 1",
/* colors */
" 	s None	c None",
".	c #FE0000",
"X	c #FF6666",
"o	c #FFCC9A",
"O	c #DDDDDD",
"+	c #6699FF",
"@	c #890000",
"#	c #FF9966",
"$	c #0000EF",
"%	c #9A6633",
"&	c #CB6532",
"*	c #BBBBBB",
"=	c #653232",
"-	c #666666",
";	c black",
/* pixels */
"..X            oooooooOO+    X..",
"@..X       oooo#######  $+OOX...",
"@@..X   ooo###%%%&&%%&  $$ X...@",
" @@..Xoo##%%&%%&&%&%&&OO$$X...@@",
"  @@..X%%%%&%&%%%&%&%&**$X...@@@",
"   @@..X%%%%&%%%======--X...@@@ ",
"   o@@..X%%%%%===;;;=% X...@    ",
"   o#@@..X%%===;%     X...@     ",
"  o#%%@@..X==;%      X...@      ",
"  o#%%%@@..X;       X...@       ",
"  o%%%%%@@..X      X...@        ",
" o#%%%%%=@@..X    X...@         ",
" o#%%%%==;@@..X  X...@          ",
" o#%%%%=;  @@..XX...@           ",
" o%%%%==%   @@.....@            ",
"o#%&%%=;     @@..@@             ",
"o#%&%%=%     X....X             ",
"o#&%%=;     X..@@..X            ",
"o#&%%=;    X...@@@..X           ",
"o#%%%=;   X...@  @@..X          ",
"o#&%%==  X...@    @@..X         ",
"o#&&&&% X...@      @@..X        ",
"O  O*- X...@        @@..X       ",
"O  O*-X...@          @@..X      ",
"+$$$$X...@            @@..X     ",
" +$$X...@              @@..X    ",
" O X...@                @@..X   ",
" OX...@                  @@..X  ",
" X...@                    @@..X ",
"X...@@                     @@..X",
"...@@@                      @@@@",
"..@@@                        @@@"};
