/* XPM */
static char *__builtin_w3c_icon_text_document[] = {
/* width height ncolors chars_per_pixel */
"20 22 5 1",
/* colors */
"  c #000000",
". c #999999",
"X c #333333",
"o c none",
"O c #FFFFFF",
/* pixels */
"XXXXXXXXXXXXXooooooo",
"XOOOOOOOOOOXOXoooooo",
"XOOOOOOOOOOXOOXooooo",
"XOOOOOOOOOOXOOOXoooo",
"XOOOOOOOOOOXOOOOXooo",
"XOO      OO X X X oo",
"XOOOOOOOOOO       oo",
"XOO      OOOO.... oo",
"XOOOOOOOOOOOOO... oo",
"XOO          OOO. oo",
"XOOOOOOOOOOOOOOO. oo",
"XOO          OOO. oo",
"XOOOOOOOOOOOOOOO. oo",
"XOO          OOO. oo",
"XOOOOOOOOOOOOOOO. oo",
"XOOOOO       OOO. oo",
"XOOOOOOOOOOOOOOO. oo",
"XOOOOO       OOO. oo",
"XOOOOOOOOOOOOOOO. oo",
"XOOOOOOOOOOOOOOO. oo",
"XX..............X oo",
"oo                oo"
};
