/* XPM */
static char *__builtin_w3c_icon_www[] = {
/* width height ncolors chars_per_pixel */
"19 22 2 1",
/* colors */
"  c #000000",
". c none",
/* pixels */
"..   ...........   ",
".. . ........... . ",
".. . ........... . ",
"... . ......... . .",
".   . ...   ...   .",
".   . ... . ...   .",
".     .. ... ..   .",
"..   . . . . .   ..",
"     . .    .    ..",
" .   . .    .. . ..",
" .   .         . ..",
". .   .       . ...",
". .           . ...",
". .     .     . ...",
". .    ...    . ...",
".. .   . .   . ....",
".. .  . . .  . ....",
".. .  . . .  . ....",
".. . . ... . . ....",
"... .. ... .. .....",
"... . ..... . .....",
"...   .....   ....."
};
