#define fingers_m_width 16
#define fingers_m_height 16
static unsigned char fingers_m_bits[] = {
   0x30, 0x00, 0x78, 0x00, 0x78, 0x00, 0x78, 0x00, 0xf8, 0x6d, 0xf8, 0xff,
   0xfe, 0xff, 0xff, 0xff, 0xff, 0xff, 0xff, 0xff, 0xff, 0xff, 0xfe, 0xff,
   0xfe, 0x7f, 0xfc, 0x7f, 0xfc, 0x7f, 0xfc, 0x7f};
