#define fingers_width 16
#define fingers_height 16
#define fingers_x_hot 4
#define fingers_y_hot 0
static unsigned char fingers_bits[] = {
   0xcf, 0xff, 0xb7, 0xff, 0xb7, 0xff, 0xb7, 0xff, 0x37, 0x92, 0xb7, 0x6d,
   0xb1, 0x6d, 0xb6, 0x6d, 0xb6, 0x6d, 0xf6, 0x7f, 0xf6, 0x7f, 0xfd, 0x7f,
   0xfd, 0xbf, 0xfb, 0xbf, 0xfb, 0xbf, 0x03, 0x80};
