/* XPM */
static char * A_xpm[] = {
"12 18 2 1",
" 	c #FFFFFFFF0000",
".	c #000000000000",
"            ",
"            ",
"            ",
"            ",
"     ..     ",
"    ....    ",
"    .  .    ",
"   ..  ..   ",
"   ..  ..   ",
"   ......   ",
"  ..    ..  ",
"  ..    ..  ",
"  ..    ..  ",
"            ",
"            ",
"            ",
"            ",
"            "};
