/* XPM */
static char * ADDRESS_xpm[] = {
"65 18 2 1",
" 	c #FFFFFFFF0000",
".	c #000000000000",
"                                                                 ",
"                                                                 ",
"                                                                 ",
"                                                                 ",
"     ..    .....    .....    ......   ......   .....    .....    ",
"    ....   ..  ..   ..  ..   ..   ..  ..      ..   ..  ..   ..   ",
"    .  .   ..   ..  ..   ..  ..   ..  ..      ..   ..  ..   ..   ",
"   ..  ..  ..   ..  ..   ..  ..   ..  ..       ...      ...      ",
"   ..  ..  ..   ..  ..   ..  ......   ......     ...      ...    ",
"   ......  ..   ..  ..   ..  ..  ..   ..          ...      ...   ",
"  ..    .. ..   ..  ..   ..  ..   ..  ..      ..   ..  ..   ..   ",
"  ..    .. ..  ..   ..  ..   ..   ..  ..      ..   ..  ..   ..   ",
"  ..    .. .....    .....    ..   ..  ......   .....    .....    ",
"                                                                 ",
"                                                                 ",
"                                                                 ",
"                                                                 ",
"                                                                 "};
