/* XPM */
static char * AREA_xpm[] = {
"37 18 2 1",
" 	c #FFFFFFFF0000",
".	c #000000000000",
"                                     ",
"                                     ",
"                                     ",
"                                     ",
"     ..    ......   ......    ..     ",
"    ....   ..   ..  ..       ....    ",
"    .  .   ..   ..  ..       .  .    ",
"   ..  ..  ..   ..  ..      ..  ..   ",
"   ..  ..  ......   ......  ..  ..   ",
"   ......  ..  ..   ..      ......   ",
"  ..    .. ..   ..  ..     ..    ..  ",
"  ..    .. ..   ..  ..     ..    ..  ",
"  ..    .. ..   ..  ...... ..    ..  ",
"                                     ",
"                                     ",
"                                     ",
"                                     ",
"                                     "};
