/* XPM */
static char * BIG_xpm[] = {
"27 18 2 1",
" 	c #FFFFFFFF0000",
".	c #000000000000",
"                           ",
"                           ",
"                           ",
"                           ",
"   ......   ..    .....    ",
"   ..   ..  ..   ..   ..   ",
"   ..   ..  ..  ..         ",
"   ..   ..  ..  ..         ",
"   ......   ..  ..  ....   ",
"   ..   ..  ..  ..    ..   ",
"   ..   ..  ..  ..    ..   ",
"   ..   ..  ..   ..   ..   ",
"   ......   ..    .... .   ",
"                           ",
"                           ",
"                           ",
"                           ",
"                           "};
