/* XPM */
static char * BLOCKQUOTE_xpm[] = {
"92 18 2 1",
" 	c #FFFFFFFF0000",
".	c #000000000000",
"                                                                                            ",
"                                                                                            ",
"                                                                                            ",
"                                                                                            ",
"   ......   ..       ....      ....  ..   ..    ....    ..   ..    ....   ........ ......   ",
"   ..   ..  ..      ..  ..    ..  .. ..  ..    ..  ..   ..   ..   ..  ..     ..    ..       ",
"   ..   ..  ..     ..    ..  ..      .. ..    ..    ..  ..   ..  ..    ..    ..    ..       ",
"   ..   ..  ..     ..    ..  ..      ....     ..    ..  ..   ..  ..    ..    ..    ..       ",
"   ......   ..     ..    ..  ..      ....     ..    ..  ..   ..  ..    ..    ..    ......   ",
"   ..   ..  ..     ..    ..  ..      .. ..    ..  . ..  ..   ..  ..    ..    ..    ..       ",
"   ..   ..  ..     ..    ..  ..      ..  ..   ..  ....  ..   ..  ..    ..    ..    ..       ",
"   ..   ..  ..      ..  ..    ..  .. ..   ..   ..  ..    .. ..    ..  ..     ..    ..       ",
"   ......   ......   ....      ....  ..    ..   ......   .....     ....      ..    ......   ",
"                                                                                            ",
"                                                                                            ",
"                                                                                            ",
"                                                                                            ",
"                                                                                            "};
