/* XPM */
static char * CAPTION_xpm[] = {
"59 18 2 1",
" 	c #FFFFFFFF0000",
".	c #000000000000",
"                                                           ",
"                                                           ",
"                                                           ",
"                                                           ",
"     ....    ..    ...... ........ ..    ....    ..   ..   ",
"    ..  ..  ....   ..   ..   ..    ..   ..  ..   ...  ..   ",
"   ..       .  .   ..   ..   ..    ..  ..    ..  ...  ..   ",
"   ..      ..  ..  ..   ..   ..    ..  ..    ..  .. . ..   ",
"   ..      ..  ..  ......    ..    ..  ..    ..  .. . ..   ",
"   ..      ......  ..        ..    ..  ..    ..  ..  ...   ",
"   ..     ..    .. ..        ..    ..  ..    ..  ..  ...   ",
"    ..  ....    .. ..        ..    ..   ..  ..   ..   ..   ",
"     .... ..    .. ..        ..    ..    ....    ..   ..   ",
"                                                           ",
"                                                           ",
"                                                           ",
"                                                           ",
"                                                           "};
