/* XPM */
static char * CITE_xpm[] = {
"32 18 2 1",
" 	c #FFFFFFFF0000",
".	c #000000000000",
"                                ",
"                                ",
"                                ",
"                                ",
"     ....  .. ........ ......   ",
"    ..  .. ..    ..    ..       ",
"   ..      ..    ..    ..       ",
"   ..      ..    ..    ..       ",
"   ..      ..    ..    ......   ",
"   ..      ..    ..    ..       ",
"   ..      ..    ..    ..       ",
"    ..  .. ..    ..    ..       ",
"     ....  ..    ..    ......   ",
"                                ",
"                                ",
"                                ",
"                                ",
"                                "};
