/* XPM */
static char * CODE_xpm[] = {
"39 18 2 1",
" 	c #FFFFFFFF0000",
".	c #000000000000",
"                                       ",
"                                       ",
"                                       ",
"                                       ",
"     ....    ....    .....    ......   ",
"    ..  ..  ..  ..   ..  ..   ..       ",
"   ..      ..    ..  ..   ..  ..       ",
"   ..      ..    ..  ..   ..  ..       ",
"   ..      ..    ..  ..   ..  ......   ",
"   ..      ..    ..  ..   ..  ..       ",
"   ..      ..    ..  ..   ..  ..       ",
"    ..  ..  ..  ..   ..  ..   ..       ",
"     ....    ....    .....    ......   ",
"                                       ",
"                                       ",
"                                       ",
"                                       ",
"                                       "};
