/* XPM */
static char * DD_xpm[] = {
"22 18 2 1",
" 	c #FFFFFFFF0000",
".	c #000000000000",
"                      ",
"                      ",
"                      ",
"                      ",
"   .....    .....     ",
"   ..  ..   ..  ..    ",
"   ..   ..  ..   ..   ",
"   ..   ..  ..   ..   ",
"   ..   ..  ..   ..   ",
"   ..   ..  ..   ..   ",
"   ..   ..  ..   ..   ",
"   ..  ..   ..  ..    ",
"   .....    .....     ",
"                      ",
"                      ",
"                      ",
"                      ",
"                      "};
