/* XPM */
static char * DIR_xpm[] = {
"26 18 2 1",
" 	c #FFFFFFFF0000",
".	c #000000000000",
"                          ",
"                          ",
"                          ",
"                          ",
"   .....    ..  ......    ",
"   ..  ..   ..  ..   ..   ",
"   ..   ..  ..  ..   ..   ",
"   ..   ..  ..  ..   ..   ",
"   ..   ..  ..  ......    ",
"   ..   ..  ..  ..  ..    ",
"   ..   ..  ..  ..   ..   ",
"   ..  ..   ..  ..   ..   ",
"   .....    ..  ..   ..   ",
"                          ",
"                          ",
"                          ",
"                          ",
"                          "};
