/* XPM */
static char * DIV_xpm[] = {
"25 18 2 1",
" 	c #FFFFFFFF0000",
".	c #000000000000",
"                         ",
"                         ",
"                         ",
"                         ",
"   .....    .. ..    ..  ",
"   ..  ..   .. ..    ..  ",
"   ..   ..  ..  ..  ..   ",
"   ..   ..  ..  ..  ..   ",
"   ..   ..  ..  ..  ..   ",
"   ..   ..  ..   .  .    ",
"   ..   ..  ..   ....    ",
"   ..  ..   ..    ..     ",
"   .....    ..    ..     ",
"                         ",
"                         ",
"                         ",
"                         ",
"                         "};
