/* XPM */
static char * DOCTYPE_xpm[] = {
"63 18 2 1",
" 	c #FFFFFFFF0000",
".	c #000000000000",
"                                                               ",
"                                                               ",
"                                                               ",
"                                                               ",
"   .....      ....      .... ..........    .. ......  ......   ",
"   ..  ..    ..  ..    ..  ..   ..   ..    .. ..   .. ..       ",
"   ..   ..  ..    ..  ..        ..    ..  ..  ..   .. ..       ",
"   ..   ..  ..    ..  ..        ..    ..  ..  ..   .. ..       ",
"   ..   ..  ..    ..  ..        ..     ....   ......  ......   ",
"   ..   ..  ..    ..  ..        ..      ..    ..      ..       ",
"   ..   ..  ..    ..  ..        ..      ..    ..      ..       ",
"   ..  ..    ..  ..    ..  ..   ..      ..    ..      ..       ",
"   .....      ....      ....    ..      ..    ..      ......   ",
"                                                               ",
"                                                               ",
"                                                               ",
"                                                               ",
"                                                               "};
