/* XPM */
static char * EM_xpm[] = {
"23 18 2 1",
" 	c #FFFFFFFF0000",
".	c #000000000000",
"                       ",
"                       ",
"                       ",
"                       ",
"   ......  ..     ..   ",
"   ..      ..     ..   ",
"   ..      ...   ...   ",
"   ..      ...   ...   ",
"   ......  .... ....   ",
"   ..      .. . . ..   ",
"   ..      .. ... ..   ",
"   ..      ..  .  ..   ",
"   ......  ..  .  ..   ",
"                       ",
"                       ",
"                       ",
"                       ",
"                       "};
