/* XPM */
static char * FONT_xpm[] = {
"38 18 2 1",
" 	c #FFFFFFFF0000",
".	c #000000000000",
"                                      ",
"                                      ",
"                                      ",
"                                      ",
"   ......   ....    ..   .. ........  ",
"   ..      ..  ..   ...  ..    ..     ",
"   ..     ..    ..  ...  ..    ..     ",
"   ..     ..    ..  .. . ..    ..     ",
"   .....  ..    ..  .. . ..    ..     ",
"   ..     ..    ..  ..  ...    ..     ",
"   ..     ..    ..  ..  ...    ..     ",
"   ..      ..  ..   ..   ..    ..     ",
"   ..       ....    ..   ..    ..     ",
"                                      ",
"                                      ",
"                                      ",
"                                      ",
"                                      "};
