/* XPM */
static char * FORM_xpm[] = {
"41 18 2 1",
" 	c #FFFFFFFF0000",
".	c #000000000000",
"                                         ",
"                                         ",
"                                         ",
"                                         ",
"   ......   ....    ......   ..     ..   ",
"   ..      ..  ..   ..   ..  ..     ..   ",
"   ..     ..    ..  ..   ..  ...   ...   ",
"   ..     ..    ..  ..   ..  ...   ...   ",
"   .....  ..    ..  ......   .... ....   ",
"   ..     ..    ..  ..  ..   .. . . ..   ",
"   ..     ..    ..  ..   ..  .. ... ..   ",
"   ..      ..  ..   ..   ..  ..  .  ..   ",
"   ..       ....    ..   ..  ..  .  ..   ",
"                                         ",
"                                         ",
"                                         ",
"                                         ",
"                                         "};
