/* XPM */
static char * FRAMESET_xpm[] = {
"72 18 2 1",
" 	c #FFFFFFFF0000",
".	c #000000000000",
"                                                                        ",
"                                                                        ",
"                                                                        ",
"                                                                        ",
"   ...... ......     ..    ..     ..  ......   .....   ...... ........  ",
"   ..     ..   ..   ....   ..     ..  ..      ..   ..  ..        ..     ",
"   ..     ..   ..   .  .   ...   ...  ..      ..   ..  ..        ..     ",
"   ..     ..   ..  ..  ..  ...   ...  ..       ...     ..        ..     ",
"   .....  ......   ..  ..  .... ....  ......     ...   ......    ..     ",
"   ..     ..  ..   ......  .. . . ..  ..          ...  ..        ..     ",
"   ..     ..   .. ..    .. .. ... ..  ..      ..   ..  ..        ..     ",
"   ..     ..   .. ..    .. ..  .  ..  ..      ..   ..  ..        ..     ",
"   ..     ..   .. ..    .. ..  .  ..  ......   .....   ......    ..     ",
"                                                                        ",
"                                                                        ",
"                                                                        ",
"                                                                        ",
"                                                                        "};
