/* XPM */
static char * FRAME_xpm[] = {
"47 18 2 1",
" 	c #FFFFFFFF0000",
".	c #000000000000",
"                                               ",
"                                               ",
"                                               ",
"                                               ",
"   ...... ......     ..    ..     ..  ......   ",
"   ..     ..   ..   ....   ..     ..  ..       ",
"   ..     ..   ..   .  .   ...   ...  ..       ",
"   ..     ..   ..  ..  ..  ...   ...  ..       ",
"   .....  ......   ..  ..  .... ....  ......   ",
"   ..     ..  ..   ......  .. . . ..  ..       ",
"   ..     ..   .. ..    .. .. ... ..  ..       ",
"   ..     ..   .. ..    .. ..  .  ..  ..       ",
"   ..     ..   .. ..    .. ..  .  ..  ......   ",
"                                               ",
"                                               ",
"                                               ",
"                                               ",
"                                               "};
