/* XPM */
static char * H3_xpm[] = {
"20 18 2 1",
" 	c #FFFFFFFF0000",
".	c #000000000000",
"                    ",
"                    ",
"                    ",
"                    ",
"   ..   ..  ....    ",
"   ..   .. ..  ..   ",
"   ..   ..     ..   ",
"   ..   ..   ...    ",
"   .......     ..   ",
"   ..   ..     ..   ",
"   ..   ..     ..   ",
"   ..   .. ..  ..   ",
"   ..   ..  ....    ",
"                    ",
"                    ",
"                    ",
"                    ",
"                    "};
