/* XPM */
static char * I_xpm[] = {
"8 18 2 1",
" 	c #FFFFFFFF0000",
".	c #000000000000",
"        ",
"        ",
"        ",
"        ",
"   ..   ",
"   ..   ",
"   ..   ",
"   ..   ",
"   ..   ",
"   ..   ",
"   ..   ",
"   ..   ",
"   ..   ",
"        ",
"        ",
"        ",
"        ",
"        "};
