/* XPM */
static char * INPUT_xpm[] = {
"42 18 2 1",
" 	c #FFFFFFFF0000",
".	c #000000000000",
"                                          ",
"                                          ",
"                                          ",
"                                          ",
"   ..  ..   ..  ......  ..   .. ........  ",
"   ..  ...  ..  ..   .. ..   ..    ..     ",
"   ..  ...  ..  ..   .. ..   ..    ..     ",
"   ..  .. . ..  ..   .. ..   ..    ..     ",
"   ..  .. . ..  ......  ..   ..    ..     ",
"   ..  ..  ...  ..      ..   ..    ..     ",
"   ..  ..  ...  ..      ..   ..    ..     ",
"   ..  ..   ..  ..       .. ..     ..     ",
"   ..  ..   ..  ..       .....     ..     ",
"                                          ",
"                                          ",
"                                          ",
"                                          ",
"                                          "};
