/* XPM */
static char * ISINDEX_xpm[] = {
"55 18 2 1",
" 	c #FFFFFFFF0000",
".	c #000000000000",
"                                                       ",
"                                                       ",
"                                                       ",
"                                                       ",
"   ..   .....   ..  ..   ..  .....    ...... ..    ..  ",
"   ..  ..   ..  ..  ...  ..  ..  ..   ..     ..    ..  ",
"   ..  ..   ..  ..  ...  ..  ..   ..  ..      ..  ..   ",
"   ..   ...     ..  .. . ..  ..   ..  ..       ....    ",
"   ..     ...   ..  .. . ..  ..   ..  ......    ..     ",
"   ..      ...  ..  ..  ...  ..   ..  ..       ....    ",
"   ..  ..   ..  ..  ..  ...  ..   ..  ..      ..  ..   ",
"   ..  ..   ..  ..  ..   ..  ..  ..   ..     ..    ..  ",
"   ..   .....   ..  ..   ..  .....    ...... ..    ..  ",
"                                                       ",
"                                                       ",
"                                                       ",
"                                                       ",
"                                                       "};
