/* XPM */
static char * KBD_xpm[] = {
"31 18 2 1",
" 	c #FFFFFFFF0000",
".	c #000000000000",
"                               ",
"                               ",
"                               ",
"                               ",
"   ..   ..  ......   .....     ",
"   ..  ..   ..   ..  ..  ..    ",
"   .. ..    ..   ..  ..   ..   ",
"   ....     ..   ..  ..   ..   ",
"   ....     ......   ..   ..   ",
"   .. ..    ..   ..  ..   ..   ",
"   ..  ..   ..   ..  ..   ..   ",
"   ..   ..  ..   ..  ..  ..    ",
"   ..    .. ......   .....     ",
"                               ",
"                               ",
"                               ",
"                               ",
"                               "};
