/* XPM */
static char * LI_xpm[] = {
"15 18 2 1",
" 	c #FFFFFFFF0000",
".	c #000000000000",
"               ",
"               ",
"               ",
"               ",
"   ..     ..   ",
"   ..     ..   ",
"   ..     ..   ",
"   ..     ..   ",
"   ..     ..   ",
"   ..     ..   ",
"   ..     ..   ",
"   ..     ..   ",
"   ...... ..   ",
"               ",
"               ",
"               ",
"               ",
"               "};
