/* XPM */
static char * LINK_xpm[] = {
"33 18 2 1",
" 	c #FFFFFFFF0000",
".	c #000000000000",
"                                 ",
"                                 ",
"                                 ",
"                                 ",
"   ..     ..  ..   ..  ..   ..   ",
"   ..     ..  ...  ..  ..  ..    ",
"   ..     ..  ...  ..  .. ..     ",
"   ..     ..  .. . ..  ....      ",
"   ..     ..  .. . ..  ....      ",
"   ..     ..  ..  ...  .. ..     ",
"   ..     ..  ..  ...  ..  ..    ",
"   ..     ..  ..   ..  ..   ..   ",
"   ...... ..  ..   ..  ..    ..  ",
"                                 ",
"                                 ",
"                                 ",
"                                 ",
"                                 "};
