/* XPM */
static char * NOFRAMES_xpm[] = {
"75 18 2 1",
" 	c #FFFFFFFF0000",
".	c #000000000000",
"                                                                           ",
"                                                                           ",
"                                                                           ",
"                                                                           ",
"   ..   ..    ....    ...... ......     ..    ..     ..  ......   .....    ",
"   ...  ..   ..  ..   ..     ..   ..   ....   ..     ..  ..      ..   ..   ",
"   ...  ..  ..    ..  ..     ..   ..   .  .   ...   ...  ..      ..   ..   ",
"   .. . ..  ..    ..  ..     ..   ..  ..  ..  ...   ...  ..       ...      ",
"   .. . ..  ..    ..  .....  ......   ..  ..  .... ....  ......     ...    ",
"   ..  ...  ..    ..  ..     ..  ..   ......  .. . . ..  ..          ...   ",
"   ..  ...  ..    ..  ..     ..   .. ..    .. .. ... ..  ..      ..   ..   ",
"   ..   ..   ..  ..   ..     ..   .. ..    .. ..  .  ..  ..      ..   ..   ",
"   ..   ..    ....    ..     ..   .. ..    .. ..  .  ..  ......   .....    ",
"                                                                           ",
"                                                                           ",
"                                                                           ",
"                                                                           ",
"                                                                           "};
