/* XPM */
static char * OPTION_xpm[] = {
"53 18 2 1",
" 	c #FFFFFFFF0000",
".	c #000000000000",
"                                                     ",
"                                                     ",
"                                                     ",
"                                                     ",
"     ....    ...... ........ ..    ....    ..   ..   ",
"    ..  ..   ..   ..   ..    ..   ..  ..   ...  ..   ",
"   ..    ..  ..   ..   ..    ..  ..    ..  ...  ..   ",
"   ..    ..  ..   ..   ..    ..  ..    ..  .. . ..   ",
"   ..    ..  ......    ..    ..  ..    ..  .. . ..   ",
"   ..    ..  ..        ..    ..  ..    ..  ..  ...   ",
"   ..    ..  ..        ..    ..  ..    ..  ..  ...   ",
"    ..  ..   ..        ..    ..   ..  ..   ..   ..   ",
"     ....    ..        ..    ..    ....    ..   ..   ",
"                                                     ",
"                                                     ",
"                                                     ",
"                                                     ",
"                                                     "};
