/* XPM */
static char * PARAM_xpm[] = {
"48 18 2 1",
" 	c #FFFFFFFF0000",
".	c #000000000000",
"                                                ",
"                                                ",
"                                                ",
"                                                ",
"   ......    ..    ......     ..    ..     ..   ",
"   ..   ..  ....   ..   ..   ....   ..     ..   ",
"   ..   ..  .  .   ..   ..   .  .   ...   ...   ",
"   ..   .. ..  ..  ..   ..  ..  ..  ...   ...   ",
"   ......  ..  ..  ......   ..  ..  .... ....   ",
"   ..      ......  ..  ..   ......  .. . . ..   ",
"   ..     ..    .. ..   .. ..    .. .. ... ..   ",
"   ..     ..    .. ..   .. ..    .. ..  .  ..   ",
"   ..     ..    .. ..   .. ..    .. ..  .  ..   ",
"                                                ",
"                                                ",
"                                                ",
"                                                ",
"                                                "};
