/* XPM */
static char * SAMP_xpm[] = {
"40 18 2 1",
" 	c #FFFFFFFF0000",
".	c #000000000000",
"                                        ",
"                                        ",
"                                        ",
"                                        ",
"    .....     ..    ..     ..  ......   ",
"   ..   ..   ....   ..     ..  ..   ..  ",
"   ..   ..   .  .   ...   ...  ..   ..  ",
"    ...     ..  ..  ...   ...  ..   ..  ",
"      ...   ..  ..  .... ....  ......   ",
"       ...  ......  .. . . ..  ..       ",
"   ..   .. ..    .. .. ... ..  ..       ",
"   ..   .. ..    .. ..  .  ..  ..       ",
"    .....  ..    .. ..  .  ..  ..       ",
"                                        ",
"                                        ",
"                                        ",
"                                        ",
"                                        "};
