/* XPM */
static char * SCRIPT_xpm[] = {
"50 18 2 1",
" 	c #FFFFFFFF0000",
".	c #000000000000",
"                                                  ",
"                                                  ",
"                                                  ",
"                                                  ",
"    .....     ....  ......   ..  ...... ........  ",
"   ..   ..   ..  .. ..   ..  ..  ..   ..   ..     ",
"   ..   ..  ..      ..   ..  ..  ..   ..   ..     ",
"    ...     ..      ..   ..  ..  ..   ..   ..     ",
"      ...   ..      ......   ..  ......    ..     ",
"       ...  ..      ..  ..   ..  ..        ..     ",
"   ..   ..  ..      ..   ..  ..  ..        ..     ",
"   ..   ..   ..  .. ..   ..  ..  ..        ..     ",
"    .....     ....  ..   ..  ..  ..        ..     ",
"                                                  ",
"                                                  ",
"                                                  ",
"                                                  ",
"                                                  "};
