/* XPM */
static char * SELECT_xpm[] = {
"52 18 2 1",
" 	c #FFFFFFFF0000",
".	c #000000000000",
"                                                    ",
"                                                    ",
"                                                    ",
"                                                    ",
"    .....   ......  ..     ......    .... ........  ",
"   ..   ..  ..      ..     ..       ..  ..   ..     ",
"   ..   ..  ..      ..     ..      ..        ..     ",
"    ...     ..      ..     ..      ..        ..     ",
"      ...   ......  ..     ......  ..        ..     ",
"       ...  ..      ..     ..      ..        ..     ",
"   ..   ..  ..      ..     ..      ..        ..     ",
"   ..   ..  ..      ..     ..       ..  ..   ..     ",
"    .....   ......  ...... ......    ....    ..     ",
"                                                    ",
"                                                    ",
"                                                    ",
"                                                    ",
"                                                    "};
