/* XPM */
static char * SMALL_xpm[] = {
"46 18 2 1",
" 	c #FFFFFFFF0000",
".	c #000000000000",
"                                              ",
"                                              ",
"                                              ",
"                                              ",
"    .....   ..     ..    ..    ..     ..      ",
"   ..   ..  ..     ..   ....   ..     ..      ",
"   ..   ..  ...   ...   .  .   ..     ..      ",
"    ...     ...   ...  ..  ..  ..     ..      ",
"      ...   .... ....  ..  ..  ..     ..      ",
"       ...  .. . . ..  ......  ..     ..      ",
"   ..   ..  .. ... .. ..    .. ..     ..      ",
"   ..   ..  ..  .  .. ..    .. ..     ..      ",
"    .....   ..  .  .. ..    .. ...... ......  ",
"                                              ",
"                                              ",
"                                              ",
"                                              ",
"                                              "};
