/* XPM */
static char * STRIKE_xpm[] = {
"51 18 2 1",
" 	c #FFFFFFFF0000",
".	c #000000000000",
"                                                   ",
"                                                   ",
"                                                   ",
"                                                   ",
"    .....  ........ ......   ..  ..   ..  ......   ",
"   ..   ..    ..    ..   ..  ..  ..  ..   ..       ",
"   ..   ..    ..    ..   ..  ..  .. ..    ..       ",
"    ...       ..    ..   ..  ..  ....     ..       ",
"      ...     ..    ......   ..  ....     ......   ",
"       ...    ..    ..  ..   ..  .. ..    ..       ",
"   ..   ..    ..    ..   ..  ..  ..  ..   ..       ",
"   ..   ..    ..    ..   ..  ..  ..   ..  ..       ",
"    .....     ..    ..   ..  ..  ..    .. ......   ",
"                                                   ",
"                                                   ",
"                                                   ",
"                                                   ",
"                                                   "};
