/* XPM */
static char * STYLE_xpm[] = {
"44 18 2 1",
" 	c #FFFFFFFF0000",
".	c #000000000000",
"                                            ",
"                                            ",
"                                            ",
"                                            ",
"    .....  ..........    .. ..     ......   ",
"   ..   ..    ..   ..    .. ..     ..       ",
"   ..   ..    ..    ..  ..  ..     ..       ",
"    ...       ..    ..  ..  ..     ..       ",
"      ...     ..     ....   ..     ......   ",
"       ...    ..      ..    ..     ..       ",
"   ..   ..    ..      ..    ..     ..       ",
"   ..   ..    ..      ..    ..     ..       ",
"    .....     ..      ..    ...... ......   ",
"                                            ",
"                                            ",
"                                            ",
"                                            ",
"                                            "};
