/* XPM */
static char * SUP_xpm[] = {
"30 18 2 1",
" 	c #FFFFFFFF0000",
".	c #000000000000",
"                              ",
"                              ",
"                              ",
"                              ",
"    .....   ..   ..  ......   ",
"   ..   ..  ..   ..  ..   ..  ",
"   ..   ..  ..   ..  ..   ..  ",
"    ...     ..   ..  ..   ..  ",
"      ...   ..   ..  ......   ",
"       ...  ..   ..  ..       ",
"   ..   ..  ..   ..  ..       ",
"   ..   ..   .. ..   ..       ",
"    .....    .....   ..       ",
"                              ",
"                              ",
"                              ",
"                              ",
"                              "};
