/* XPM */
static char * TEXTAREA_xpm[] = {
"69 18 2 1",
" 	c #FFFFFFFF0000",
".	c #000000000000",
"                                                                     ",
"                                                                     ",
"                                                                     ",
"                                                                     ",
"  ........ ...... ..    ..........   ..    ......   ......    ..     ",
"     ..    ..     ..    ..   ..     ....   ..   ..  ..       ....    ",
"     ..    ..      ..  ..    ..     .  .   ..   ..  ..       .  .    ",
"     ..    ..       ....     ..    ..  ..  ..   ..  ..      ..  ..   ",
"     ..    ......    ..      ..    ..  ..  ......   ......  ..  ..   ",
"     ..    ..       ....     ..    ......  ..  ..   ..      ......   ",
"     ..    ..      ..  ..    ..   ..    .. ..   ..  ..     ..    ..  ",
"     ..    ..     ..    ..   ..   ..    .. ..   ..  ..     ..    ..  ",
"     ..    ...... ..    ..   ..   ..    .. ..   ..  ...... ..    ..  ",
"                                                                     ",
"                                                                     ",
"                                                                     ",
"                                                                     ",
"                                                                     "};
