/* XPM */
static char * TH_xpm[] = {
"21 18 2 1",
" 	c #FFFFFFFF0000",
".	c #000000000000",
"                     ",
"                     ",
"                     ",
"                     ",
"  ........ ..   ..   ",
"     ..    ..   ..   ",
"     ..    ..   ..   ",
"     ..    ..   ..   ",
"     ..    .......   ",
"     ..    ..   ..   ",
"     ..    ..   ..   ",
"     ..    ..   ..   ",
"     ..    ..   ..   ",
"                     ",
"                     ",
"                     ",
"                     ",
"                     "};
