/* XPM */
static char * U_xpm[] = {
"13 18 2 1",
" 	c #FFFFFFFF0000",
".	c #000000000000",
"             ",
"             ",
"             ",
"             ",
"   ..   ..   ",
"   ..   ..   ",
"   ..   ..   ",
"   ..   ..   ",
"   ..   ..   ",
"   ..   ..   ",
"   ..   ..   ",
"    .. ..    ",
"    .....    ",
"             ",
"             ",
"             ",
"             ",
"             "};
