/* XPM */
static char * VAR_xpm[] = {
"29 18 2 1",
" 	c #FFFFFFFF0000",
".	c #000000000000",
"                             ",
"                             ",
"                             ",
"                             ",
"  ..    ..   ..    ......    ",
"  ..    ..  ....   ..   ..   ",
"   ..  ..   .  .   ..   ..   ",
"   ..  ..  ..  ..  ..   ..   ",
"   ..  ..  ..  ..  ......    ",
"    .  .   ......  ..  ..    ",
"    ....  ..    .. ..   ..   ",
"     ..   ..    .. ..   ..   ",
"     ..   ..    .. ..   ..   ",
"                             ",
"                             ",
"                             ",
"                             ",
"                             "};
