#define afni16_width 16
#define afni16_height 16
static unsigned char afni16_bits[] = {
   0x06, 0x00, 0x09, 0x00, 0x09, 0x00, 0x0f, 0x00, 0xe9, 0x00, 0x29, 0x00,
   0xe0, 0x00, 0x20, 0x12, 0x20, 0x12, 0x20, 0x16, 0x00, 0x5a, 0x00, 0x52,
   0x00, 0x52, 0x00, 0x40, 0x00, 0x40, 0x00, 0x40};
